<?xml version="1.0" standalone="no"?>
<!DOCTYPE svg PUBLIC "-//W3C//DTD SVG 20010904//EN"
 "http://www.w3.org/TR/2001/REC-SVG-20010904/DTD/svg10.dtd">
<svg version="1.0" xmlns="http://www.w3.org/2000/svg"
 width="410.000000pt" height="410.000000pt" viewBox="0 0 410.000000 410.000000"
 preserveAspectRatio="xMidYMid meet">
<metadata>
Created by potrace 1.14, written by Peter Selinger 2001-2017
</metadata>
<g transform="translate(0.000000,410.000000) scale(0.100000,-0.100000)"
fill="#000000" stroke="none">
<path d="M1656 3138 c-21 -20 -86 -133 -86 -151 0 -8 55 -37 70 -37 5 0 10 5
10 12 0 19 53 117 67 122 22 9 43 -5 49 -33 11 -45 51 -88 96 -103 34 -12 44
-20 46 -40 3 -23 -4 -29 -55 -53 -83 -39 -84 -41 -65 -76 9 -16 20 -29 23 -29
18 0 139 63 155 81 13 14 18 36 18 75 1 50 -2 58 -32 85 -18 16 -41 29 -51 29
-21 0 -61 44 -61 67 0 8 -13 28 -29 44 -25 24 -38 29 -80 29 -38 0 -56 -5 -75
-22z"/>
<path d="M2411 3024 c-43 -18 -50 -27 -113 -154 l-52 -105 -436 -436 -435
-436 -95 -47 c-52 -26 -109 -57 -127 -69 -36 -25 -59 -82 -49 -124 5 -19 96
-117 274 -296 289 -290 304 -301 376 -277 38 12 67 54 150 220 35 70 67 105
444 483 224 224 418 414 432 421 14 7 70 36 125 64 55 29 110 60 123 70 25 20
39 82 28 126 -7 28 -514 539 -557 561 -34 18 -45 18 -88 -1z m317 -327 c284
-284 283 -283 202 -326 -85 -45 -178 -91 -184 -91 -11 0 -46 34 -46 45 0 6 25
35 55 65 30 30 55 59 55 65 0 7 -10 21 -23 33 l-23 22 -59 -60 c-33 -33 -63
-60 -68 -60 -10 0 -77 64 -77 74 0 4 25 33 55 63 30 31 55 61 55 68 0 6 -10
21 -23 33 l-23 22 -59 -60 c-33 -33 -63 -60 -68 -60 -5 0 -25 16 -44 35 l-35
35 63 65 62 65 -23 25 c-13 14 -27 25 -30 25 -4 0 -35 -28 -68 -62 l-61 -62
-27 27 -27 27 18 43 c11 23 23 48 28 55 6 7 22 36 36 65 15 29 30 58 34 65 23
35 55 9 305 -241z m-498 -499 l0 -422 -132 -133 c-73 -73 -136 -133 -140 -133
-4 0 -8 190 -8 423 l0 423 128 131 c70 71 133 131 140 132 9 1 12 -89 12 -421z
m268 209 l182 -182 -183 -183 c-101 -100 -187 -182 -190 -182 -4 0 -7 164 -7
365 0 201 3 365 8 365 4 0 89 -82 190 -183z m-632 -895 c-3 -2 -90 81 -195
185 l-190 190 192 192 192 192 3 -377 c1 -207 0 -379 -2 -382z m-416 293 l24
-25 -62 -63 c-34 -34 -62 -67 -62 -73 0 -6 11 -21 24 -33 l24 -23 66 68 67 68
42 -42 42 -42 -68 -68 -68 -69 30 -26 31 -26 65 66 65 67 40 -39 c22 -22 40
-43 40 -47 0 -4 -27 -35 -60 -67 -33 -33 -60 -64 -60 -69 0 -4 11 -19 24 -31
l25 -23 66 67 67 67 24 -24 25 -24 -52 -105 c-57 -114 -74 -139 -98 -139 -15
0 -504 479 -522 513 -17 29 4 49 118 108 59 31 111 58 114 58 3 1 16 -10 29
-24z"/>
<path d="M1411 2924 c-93 -25 -147 -69 -193 -158 -29 -56 -29 -162 0 -227 62
-140 234 -208 369 -145 99 47 174 159 172 259 -2 102 -70 208 -161 250 -71 33
-122 38 -187 21z m131 -84 c20 -6 54 -28 76 -50 98 -99 69 -254 -60 -321 -101
-52 -232 6 -273 120 -21 60 -19 84 11 146 45 96 136 135 246 105z"/>
<path d="M1080 2532 c-80 -40 -98 -54 -115 -96 -15 -34 -14 -40 4 -82 17 -37
28 -48 70 -65 37 -16 50 -27 55 -47 9 -45 42 -88 81 -106 70 -33 120 -3 171
102 20 42 38 80 41 84 4 9 -57 39 -68 33 -4 -3 -19 -31 -34 -62 -29 -64 -51
-93 -71 -93 -8 0 -27 29 -43 65 -26 57 -35 67 -78 87 -38 19 -48 28 -48 48 0
21 12 31 69 60 38 19 67 40 66 45 -7 27 -24 55 -34 55 -6 0 -36 -12 -66 -28z"/>
<path d="M2714 1909 c-41 -12 -110 -81 -125 -126 -19 -59 -7 -147 27 -196 45
-65 107 -91 226 -95 168 -6 258 42 293 157 16 54 16 62 1 113 -19 66 -79 132
-134 148 -45 12 -245 12 -288 -1z m292 -91 c74 -57 64 -67 -73 -70 l-118 -3
-3 -37 -3 -38 120 0 c109 0 121 -2 121 -17 0 -25 -38 -58 -84 -73 -46 -15
-210 -9 -243 8 -36 19 -63 74 -63 127 0 42 5 52 39 86 l39 39 119 0 c109 0
123 -2 149 -22z"/>
<path d="M2369 1451 c-60 -39 -164 -150 -183 -196 -50 -119 14 -250 140 -290
53 -17 59 -17 114 0 48 15 70 30 135 95 97 96 114 127 115 208 0 88 -31 142
-111 190 -56 34 -151 31 -210 -7z m165 -58 c3 -4 -33 -46 -81 -95 l-87 -87 28
-26 c15 -14 29 -25 31 -25 2 0 42 39 89 86 78 79 85 84 95 65 27 -50 -1 -111
-92 -198 -69 -67 -96 -78 -159 -70 -75 10 -119 79 -104 161 7 35 99 141 155
178 26 18 111 25 125 11z"/>
</g>
</svg>
